<svg width="277" height="136" viewBox="0 0 277 136" fill="none" xmlns="http://www.w3.org/2000/svg">
<path d="M147.63 35.7535C146.517 35.6542 145.397 35.7975 144.345 36.1736C143.872 36.3589 143.419 36.5916 142.992 36.8683L133.528 42.1789L132.849 42.5766C128.15 45.3551 123.442 48.1262 118.725 50.8897C117.256 51.8121 115.71 52.6049 114.105 53.2593C112.382 53.8583 110.558 54.1011 108.74 53.9731C106.923 53.8451 105.149 53.3489 103.527 52.5143C101.234 51.3429 99.3057 49.5585 97.9544 47.3567C96.603 45.155 95.8807 42.6211 95.8667 40.0333C95.8505 37.0231 96.8166 34.0908 98.6168 31.6866C100.382 29.4459 102.904 27.9613 105.336 26.5328L116.66 19.9059L124.454 15.3347L139.485 6.47821C140.132 6.94582 140.917 7.18069 141.714 7.14508C142.51 7.10946 143.271 6.80539 143.875 6.28182C144.478 5.75825 144.89 5.04562 145.042 4.25846C145.195 3.4713 145.08 2.65542 144.715 1.94202C144.351 1.22861 143.759 0.659121 143.035 0.325188C142.31 -0.00874594 141.495 -0.087753 140.72 0.100894C139.946 0.289542 139.257 0.734896 138.764 1.36528C138.271 1.99566 138.004 2.77444 138.004 3.57642C138.004 3.70526 138.004 3.82853 138.004 3.95177L121.386 13.755L99.8861 26.4376L97.882 23.6367L117.166 12.2481L126.965 6.46139C127.609 6.93474 128.394 7.17573 129.192 7.14549C129.989 7.11524 130.753 6.81552 131.361 6.29467C131.969 5.77383 132.384 5.0622 132.541 4.2746C132.697 3.487 132.585 2.6693 132.223 1.95343C131.862 1.23757 131.27 0.665224 130.546 0.328744C129.821 -0.0077363 129.005 -0.088744 128.229 0.0987745C127.452 0.286293 126.762 0.731412 126.268 1.36234C125.774 1.99327 125.505 2.77323 125.506 3.57642C125.503 3.80973 125.525 4.04267 125.573 4.27104L112.947 11.4471L105.982 15.4019L104.245 12.2481L105.453 11.5815L112.69 7.59859C113.327 8.08923 114.11 8.34874 114.911 8.33492C115.713 8.32111 116.486 8.03477 117.106 7.52248C117.725 7.01018 118.154 6.30207 118.323 5.51334C118.492 4.72461 118.39 3.90162 118.035 3.1783C117.68 2.45498 117.092 1.87387 116.367 1.52947C115.642 1.18506 114.822 1.0976 114.041 1.28138C113.261 1.46515 112.565 1.90935 112.067 2.54166C111.569 3.17397 111.298 3.95722 111.299 4.76401C111.297 5.17313 111.369 5.57918 111.51 5.96282L96.518 14.5057L94.8869 15.43L94.8312 15.4692C91.6145 17.4216 88.8114 19.9924 86.582 23.0349C84.3526 26.0774 82.7406 29.5319 81.838 33.2013C80.9354 36.8706 80.7599 40.683 81.3215 44.4206C81.8831 48.1582 83.1708 51.7479 85.111 54.9847C89.0296 61.5219 95.3685 66.2248 102.733 68.0591C106.38 68.9673 110.168 69.1439 113.883 68.5788C117.597 68.0137 121.165 66.718 124.381 64.7656L141.439 55.192L150.714 49.7134L151.46 49.2708C152.468 48.6009 153.295 47.69 153.867 46.6195C154.44 45.549 154.739 44.3523 154.739 43.1368C154.739 39.109 151.41 36.2241 147.63 35.7535ZM141.545 1.26284C142 1.26174 142.445 1.39648 142.824 1.65002C143.202 1.90357 143.498 2.26452 143.673 2.68718C143.848 3.10983 143.894 3.57516 143.806 4.02432C143.718 4.47348 143.499 4.88622 143.178 5.21034C142.857 5.53446 142.447 5.75541 142.001 5.84513C141.555 5.93486 141.092 5.88933 140.672 5.71438C140.251 5.53944 139.892 5.24293 139.639 4.86234C139.386 4.48176 139.251 4.03424 139.251 3.57642C139.251 2.96379 139.493 2.37614 139.923 1.94243C140.353 1.50871 140.936 1.26433 141.545 1.26284ZM129.069 1.26284C129.524 1.26174 129.969 1.39648 130.348 1.65002C130.727 1.90357 131.022 2.26452 131.197 2.68718C131.372 3.10983 131.418 3.57516 131.33 4.02432C131.242 4.47348 131.024 4.88622 130.702 5.21034C130.381 5.53446 129.971 5.75541 129.525 5.84513C129.079 5.93486 128.616 5.88933 128.196 5.71438C127.775 5.53944 127.416 5.24293 127.163 4.86234C126.91 4.48176 126.775 4.03424 126.775 3.57642C126.777 2.96424 127.019 2.37747 127.448 1.94407C127.878 1.51067 128.461 1.2658 129.069 1.26284ZM114.878 2.45044C115.333 2.44933 115.778 2.58407 116.157 2.83762C116.536 3.09116 116.832 3.45212 117.007 3.87477C117.181 4.29742 117.228 4.76275 117.14 5.21191C117.052 5.66107 116.833 6.07381 116.512 6.39793C116.19 6.72205 115.781 6.943 115.335 7.03272C114.888 7.12245 114.426 7.07692 114.005 6.90198C113.585 6.72703 113.225 6.43052 112.973 6.04994C112.72 5.66935 112.585 5.22183 112.585 4.76401C112.585 4.15138 112.826 3.56374 113.256 3.13002C113.686 2.6963 114.27 2.45192 114.878 2.45044ZM147.407 13.7774C142.645 13.7703 137.958 14.9645 133.773 17.2506L133.166 17.5923L115.68 27.4516L106.416 32.9302L105.659 33.3727C104.118 34.4241 103.032 36.0254 102.619 37.8523C102.207 39.6793 102.5 41.5956 103.439 43.2136C104.378 44.8315 105.892 46.0302 107.676 46.5672C109.459 47.1041 111.379 46.9392 113.047 46.1058L113.865 45.6296L123.608 39.8765C129.381 36.4762 135.198 32.2244 141.422 29.7203C142.848 29.1126 144.361 28.7345 145.904 28.6C153.542 28.1126 161.286 34.8965 161.286 42.6046C161.281 45.5438 160.358 48.4071 158.647 50.789C156.42 53.9036 152.796 55.5281 149.584 57.4159L141.584 62.1159L132.76 67.3032L117.434 76.311C116.905 76.0115 116.309 75.8551 115.702 75.8573C114.761 75.8588 113.859 76.236 113.194 76.9061C112.529 77.5762 112.156 78.4844 112.156 79.4313C112.155 79.8404 112.226 80.2465 112.368 80.6301C112.591 81.2809 113.002 81.8501 113.548 82.2658C114.074 82.6696 114.701 82.9176 115.36 82.9818C116.018 83.046 116.681 82.9238 117.275 82.6292C117.868 82.3345 118.367 81.879 118.717 81.314C119.067 80.749 119.253 80.097 119.254 79.4313C119.254 79.1772 119.228 78.9237 119.176 78.675L135.772 68.8829L157.277 56.2003L159.276 59.0012L139.992 70.3899L129.898 76.3559C129.353 76.0279 128.73 75.8556 128.095 75.8573C127.628 75.8573 127.167 75.9498 126.736 76.1295C126.306 76.3091 125.914 76.5725 125.585 76.9044C125.256 77.2364 124.995 77.6304 124.817 78.064C124.639 78.4976 124.548 78.9622 124.548 79.4313C124.547 79.8404 124.619 80.2465 124.76 80.6301C125.041 81.4222 125.59 82.0891 126.312 82.5131C127.034 82.9372 127.881 83.0911 128.705 82.9478C129.528 82.8044 130.275 82.373 130.813 81.7296C131.351 81.0862 131.647 80.2723 131.646 79.4313C131.648 79.0857 131.597 78.7419 131.496 78.4117L144.189 71.1461L151.165 67.1912L152.902 70.345L151.688 71.0117L144.423 74.9946C143.822 74.5538 143.096 74.3183 142.352 74.3224C141.886 74.3224 141.425 74.4149 140.994 74.5946C140.564 74.7744 140.173 75.0378 139.844 75.3699C139.515 75.7019 139.255 76.0959 139.078 76.5295C138.9 76.9631 138.81 77.4276 138.811 77.8964C138.815 78.444 138.942 78.9837 139.183 79.4746C139.424 79.9656 139.773 80.3952 140.203 80.7309C140.819 81.2088 141.575 81.467 142.352 81.4648C142.818 81.4655 143.28 81.3738 143.712 81.1949C144.143 81.0159 144.535 80.7533 144.865 80.4219C145.195 80.0906 145.458 79.697 145.637 79.2636C145.816 78.8303 145.909 78.3657 145.909 77.8964C145.909 77.4534 145.826 77.0143 145.664 76.6023L160.601 68.0875L162.232 67.1632L162.299 67.1239C167.622 63.8555 171.737 58.9262 174.018 53.0867C176.299 47.2471 176.621 40.8174 174.934 34.7769C173.248 28.7363 169.646 23.4159 164.676 19.6259C159.707 15.8359 153.642 13.7841 147.407 13.783V13.7774ZM115.674 81.6888C115.219 81.6888 114.775 81.553 114.396 81.2985C114.018 81.0441 113.724 80.6824 113.55 80.2593C113.376 79.8363 113.331 79.3708 113.42 78.9218C113.509 78.4729 113.729 78.0607 114.051 77.7373C114.373 77.414 114.783 77.1941 115.229 77.1055C115.676 77.0168 116.138 77.0634 116.558 77.2394C116.978 77.4153 117.337 77.7128 117.589 78.094C117.841 78.4752 117.975 78.923 117.974 79.3808C117.972 79.9925 117.73 80.5787 117.3 81.0112C116.87 81.4437 116.288 81.6873 115.68 81.6888H115.674ZM128.067 81.6888C127.612 81.6888 127.167 81.553 126.789 81.2985C126.411 81.0441 126.116 80.6824 125.942 80.2593C125.768 79.8363 125.723 79.3708 125.812 78.9218C125.901 78.4729 126.121 78.0607 126.443 77.7373C126.765 77.414 127.175 77.1941 127.622 77.1055C128.068 77.0168 128.531 77.0634 128.951 77.2394C129.371 77.4153 129.729 77.7128 129.981 78.094C130.233 78.4752 130.367 78.923 130.366 79.3808C130.365 79.9925 130.122 80.5787 129.693 81.0112C129.263 81.4437 128.68 81.6873 128.072 81.6888H128.067ZM142.346 80.1987C141.892 80.1976 141.447 80.0608 141.07 79.8057C140.693 79.5505 140.399 79.1885 140.226 78.7653C140.053 78.3421 140.008 77.8769 140.098 77.4283C140.188 76.9797 140.408 76.568 140.73 76.2452C141.052 75.9225 141.463 75.7031 141.909 75.615C142.355 75.5268 142.817 75.5737 143.237 75.7499C143.657 75.926 144.015 76.2234 144.267 76.6044C144.519 76.9855 144.652 77.4332 144.651 77.8908C144.651 78.1943 144.592 78.4949 144.476 78.7753C144.36 79.0557 144.191 79.3103 143.977 79.5247C143.764 79.7391 143.51 79.909 143.231 80.0246C142.953 80.1403 142.654 80.1995 142.352 80.1987H142.346Z" fill="white"/>
<path d="M18.2588 108.314V111.167H10.6032V135.365H8.03653V111.079H0V108.319L18.2588 108.314ZM44.648 135.36H41.6564L34.3705 124.409H29.3201V135.36H26.5603V108.557H35.4413C39.9674 108.557 44.9737 111.625 44.1954 116.836C43.1356 123.884 37.318 124.442 37.318 124.442L44.648 135.36ZM36.7771 122.207C36.7771 122.207 41.833 121.787 41.833 116.433C41.833 111.079 36.8378 110.654 36.8378 110.654H29.138V122.207H36.7771ZM60.3016 124.519L60.3292 135.365H63.0393V124.47L71.4567 109.12L68.868 108.932L61.56 122.731L53.794 108.568H51.5033L60.3016 124.519ZM91.8957 115.92H98.2267C98.2267 115.92 98.5192 109.765 92.1938 108.551C85.8683 107.337 80.4812 108.882 78.7701 114.071C77.0591 119.259 80.7793 122.052 83.6771 123.178C86.5749 124.304 92.6629 124.889 92.249 127.671C91.835 130.453 90.7752 130.685 88.9372 130.806C87.0992 130.927 85.2722 130.569 84.919 127.61L78.3341 127.787C78.3341 127.787 79.0627 135.476 87.1655 135.95C95.2682 136.425 98.1053 132.087 98.6407 130.861C99.1761 129.636 100.352 123.531 94.087 120.987C87.8223 118.442 84.6209 118.387 84.9797 115.191C85.3385 111.995 91.3272 111.465 91.8957 115.92ZM105.38 108.165L112.832 136H120.758L125.488 117.929L129.981 136H138.023L145.237 108.165H138.023L134.121 128.101L129.153 108.165H121.586L116.971 128.339L112.947 108.165H105.38ZM163.766 110.455V133.709C163.766 134.317 163.525 134.899 163.095 135.329C162.666 135.759 162.083 136 161.476 136H155.217C154.915 136.001 154.617 135.942 154.338 135.827C154.06 135.712 153.807 135.544 153.593 135.331C153.38 135.118 153.211 134.865 153.095 134.587C152.98 134.309 152.92 134.011 152.92 133.709V110.455C152.92 109.846 153.162 109.262 153.593 108.832C154.023 108.401 154.608 108.159 155.217 108.159H161.492C162.098 108.164 162.677 108.408 163.103 108.838C163.529 109.268 163.768 109.85 163.766 110.455ZM162.662 114.015C162.662 113.164 162.41 112.332 161.937 111.624C161.464 110.916 160.791 110.364 160.005 110.038C159.218 109.712 158.352 109.627 157.517 109.793C156.682 109.959 155.915 110.369 155.313 110.971C154.711 111.573 154.301 112.34 154.135 113.176C153.968 114.011 154.054 114.876 154.38 115.663C154.705 116.45 155.257 117.122 155.965 117.595C156.673 118.068 157.506 118.321 158.357 118.321C159.495 118.315 160.585 117.859 161.387 117.052C162.19 116.245 162.64 115.153 162.64 114.015H162.662ZM168.866 108.159V114.021H176.191V136H182.814V114.021H190.327V108.159H168.866ZM215.882 117.686L210.07 130.122C206.367 130.122 203.364 126.567 203.364 122.179C203.364 117.791 206.367 114.242 210.07 114.242C211.212 114.277 212.324 114.613 213.294 115.217C214.263 115.821 215.055 116.671 215.59 117.68H223.764C222.755 114.475 220.633 111.737 217.782 109.959C214.93 108.181 211.537 107.481 208.215 107.985C204.893 108.489 201.861 110.165 199.665 112.708C197.47 115.252 196.256 118.497 196.243 121.857C196.23 125.217 197.419 128.472 199.594 131.032C201.77 133.593 204.79 135.292 208.108 135.822C211.426 136.351 214.824 135.678 217.689 133.922C220.554 132.166 222.697 129.444 223.731 126.247H215.805C214.635 128.571 212.493 130.122 210.048 130.122L215.882 117.686ZM248.498 108.159V119.198H238.353V108.159H231.177V136H238.353V124.37H248.498V136H255.673V108.159H248.498Z" fill="white"/>
<path d="M269.047 107C267.628 107 266.241 107.421 265.061 108.209C263.881 108.998 262.961 110.118 262.418 111.43C261.875 112.741 261.733 114.183 262.009 115.575C262.286 116.967 262.97 118.246 263.973 119.249C264.977 120.253 266.255 120.936 267.647 121.213C269.039 121.49 270.482 121.348 271.793 120.805C273.104 120.262 274.225 119.342 275.013 118.162C275.802 116.982 276.223 115.595 276.223 114.175C276.221 112.273 275.464 110.449 274.119 109.104C272.773 107.759 270.949 107.002 269.047 107ZM269.047 120.247C267.846 120.247 266.672 119.891 265.674 119.224C264.675 118.557 263.897 117.608 263.438 116.499C262.978 115.39 262.858 114.169 263.092 112.991C263.326 111.813 263.905 110.731 264.754 109.882C265.603 109.033 266.685 108.455 267.863 108.221C269.04 107.986 270.261 108.107 271.371 108.566C272.48 109.026 273.428 109.804 274.095 110.802C274.763 111.801 275.119 112.975 275.119 114.175C275.117 115.785 274.477 117.328 273.338 118.467C272.2 119.605 270.657 120.245 269.047 120.247ZM267.943 112.52C267.943 112.666 267.885 112.806 267.781 112.91C267.678 113.013 267.538 113.072 267.391 113.072H266.839V115.831C266.839 115.978 266.781 116.118 266.678 116.222C266.574 116.325 266.434 116.383 266.287 116.383C266.141 116.383 266 116.325 265.897 116.222C265.793 116.118 265.735 115.978 265.735 115.831V113.072H265.183C265.037 113.072 264.897 113.013 264.793 112.91C264.69 112.806 264.631 112.666 264.631 112.52C264.631 112.373 264.69 112.233 264.793 112.129C264.897 112.026 265.037 111.968 265.183 111.968H267.391C267.538 111.968 267.678 112.026 267.781 112.129C267.885 112.233 267.943 112.373 267.943 112.52ZM273.463 112.52V115.831C273.463 115.978 273.405 116.118 273.301 116.222C273.198 116.325 273.057 116.383 272.911 116.383C272.764 116.383 272.624 116.325 272.52 116.222C272.417 116.118 272.359 115.978 272.359 115.831V113.988L271.393 115.092C271.341 115.151 271.277 115.198 271.206 115.23C271.135 115.263 271.057 115.279 270.979 115.279C270.901 115.279 270.823 115.263 270.752 115.23C270.68 115.198 270.617 115.151 270.565 115.092L269.599 113.988V115.831C269.599 115.978 269.541 116.118 269.437 116.222C269.334 116.325 269.193 116.383 269.047 116.383C268.901 116.383 268.76 116.325 268.657 116.222C268.553 116.118 268.495 115.978 268.495 115.831V112.52C268.495 112.408 268.53 112.298 268.594 112.206C268.657 112.114 268.748 112.044 268.853 112.005C268.957 111.965 269.072 111.958 269.18 111.985C269.289 112.013 269.387 112.072 269.461 112.156L270.979 113.889L272.497 112.156C272.571 112.072 272.669 112.013 272.777 111.985C272.886 111.958 273 111.965 273.105 112.005C273.21 112.044 273.3 112.114 273.364 112.206C273.428 112.298 273.462 112.408 273.463 112.52Z" fill="white"/>
</svg>